<?xml version="1.0" standalone="no"?>
<!DOCTYPE svg PUBLIC "-//W3C//DTD SVG 20010904//EN"
 "http://www.w3.org/TR/2001/REC-SVG-20010904/DTD/svg10.dtd">
<svg version="1.0" xmlns="http://www.w3.org/2000/svg"
 width="2000.000000pt" height="325.000000pt" viewBox="0 0 2000.000000 325.000000"
 preserveAspectRatio="xMidYMid meet">

<g transform="translate(0.000000,325.000000) scale(0.100000,-0.100000)"
fill="#000000" stroke="none">
<path d="M10096 2839 c-73 -64 -133 -211 -123 -300 7 -53 21 -84 72 -147 45
-56 46 -98 5 -167 -39 -65 -39 -107 -1 -146 58 -58 122 -29 180 81 61 114 51
229 -30 345 -40 57 -41 60 -29 99 6 22 27 62 46 90 44 65 45 104 3 145 -40 41
-77 41 -123 0z"/>
<path d="M9731 2674 c-38 -31 -73 -90 -106 -175 -40 -101 -31 -162 35 -249 61
-79 67 -128 26 -190 -34 -51 -41 -84 -26 -121 13 -31 55 -59 89 -59 58 0 142
131 149 231 6 81 -12 142 -63 220 -41 61 -44 68 -34 102 5 19 25 58 44 86 45
66 47 111 6 152 -38 37 -79 38 -120 3z"/>
<path d="M10439 2660 c-77 -81 -124 -223 -105 -322 3 -18 26 -60 50 -92 54
-73 63 -107 38 -155 -11 -20 -27 -51 -37 -70 -23 -44 -9 -99 34 -124 34 -20
51 -21 86 -5 49 22 125 173 125 248 0 49 -34 134 -80 198 -33 47 -37 58 -30
89 5 19 24 59 44 89 48 71 49 121 5 158 -46 39 -84 35 -130 -14z"/>
<path d="M3364 2250 c-30 -12 -71 -64 -79 -100 -4 -16 -2 -45 4 -63 37 -111
183 -129 247 -32 24 37 23 109 -3 143 -37 51 -113 75 -169 52z"/>
<path d="M1851 2221 c-29 -10 -65 -27 -80 -38 -68 -50 -121 -180 -121 -298 0
-50 -2 -55 -22 -55 -52 0 -99 -21 -118 -53 -28 -45 -25 -81 9 -119 22 -25 39
-33 77 -37 l49 -6 3 -279 2 -280 -24 -25 c-51 -55 -59 -102 -25 -145 63 -80
176 -72 243 18 20 26 21 44 26 369 l5 342 128 5 129 5 29 33 c35 39 38 82 9
123 -27 37 -73 49 -192 49 l-98 0 0 69 c0 96 17 116 97 115 32 0 81 -2 109 -5
63 -5 97 12 119 58 21 44 13 92 -19 122 -51 48 -237 65 -335 32z"/>
<path d="M14553 2214 c-45 -23 -65 -58 -65 -116 0 -60 22 -95 76 -122 32 -16
44 -17 75 -8 118 36 136 202 26 248 -44 18 -72 18 -112 -2z"/>
<path d="M16713 2175 c-33 -33 -35 -39 -30 -81 3 -33 13 -54 31 -71 l26 -24 0
-464 c0 -439 -1 -465 -18 -477 -51 -36 -57 -111 -13 -160 27 -30 34 -33 88
-33 71 0 116 28 144 89 16 36 19 69 19 266 0 251 7 280 69 333 110 92 304 42
340 -88 6 -24 11 -130 11 -258 0 -240 5 -264 59 -310 59 -49 139 -47 191 5 42
41 42 94 0 141 l-30 35 0 143 c-1 295 -25 398 -119 489 -77 76 -152 105 -276
105 -96 0 -148 -15 -212 -62 l-32 -23 -3 188 c-3 182 -4 190 -28 225 -31 46
-74 67 -135 67 -40 0 -52 -5 -82 -35z"/>
<path d="M739 2173 c-40 -25 -36 -15 -210 -478 -27 -71 -54 -139 -59 -150 -5
-11 -47 -121 -94 -245 -46 -124 -87 -232 -90 -240 -4 -8 -20 -23 -36 -32 -16
-9 -37 -32 -46 -51 -14 -30 -14 -37 -1 -70 18 -42 69 -77 112 -77 44 1 110 34
136 69 13 17 44 87 69 154 l46 122 238 0 239 0 38 -100 c53 -137 80 -186 119
-212 37 -26 89 -38 124 -29 37 9 84 53 91 86 9 40 -21 100 -56 112 -24 8 -34
28 -84 161 -77 202 -76 200 -200 522 -60 154 -119 308 -132 343 -29 79 -47
106 -79 120 -35 17 -94 14 -125 -5z m102 -415 c15 -46 52 -148 83 -228 31 -80
56 -146 56 -147 0 -2 -79 -3 -175 -3 -96 0 -175 2 -175 5 0 3 7 22 16 43 28
67 102 266 124 332 11 36 23 71 26 79 7 22 15 7 45 -81z"/>
<path d="M7954 2166 c-128 -47 -216 -118 -264 -212 -22 -42 -25 -62 -25 -144
0 -84 4 -102 28 -152 53 -108 161 -181 377 -255 58 -20 110 -39 115 -43 6 -4
21 -11 35 -15 41 -13 110 -65 131 -98 57 -94 -18 -181 -179 -209 -94 -16 -190
0 -281 46 -84 43 -113 50 -153 33 -43 -18 -59 -38 -65 -84 -10 -75 76 -150
222 -195 100 -31 301 -31 397 0 92 29 136 53 194 105 58 53 91 113 105 196 27
153 -57 296 -222 377 -59 30 -85 40 -186 78 -191 70 -252 108 -283 171 -26 54
-20 93 20 134 43 43 95 63 180 68 96 7 165 -9 239 -53 59 -36 122 -45 151 -21
51 39 63 101 31 152 -24 39 -113 92 -204 122 -101 33 -274 32 -363 -1z"/>
<path d="M13301 2124 c-51 -43 -51 -137 0 -165 18 -9 19 -31 19 -453 0 -378
-2 -445 -14 -449 -26 -10 -49 -67 -42 -105 15 -96 130 -122 213 -49 53 47 63
80 63 214 l1 118 83 89 83 89 201 -255 c111 -141 214 -264 230 -274 19 -13 45
-19 85 -19 55 0 61 2 93 37 26 28 34 47 34 74 0 46 -31 89 -76 106 -38 14 -52
29 -272 311 -73 93 -132 174 -132 179 0 6 56 68 123 137 220 224 226 232 227
312 0 38 -6 52 -33 83 -26 31 -41 39 -78 43 -41 5 -50 2 -78 -23 -22 -20 -34
-42 -38 -69 -5 -34 -23 -57 -128 -165 -67 -69 -167 -173 -221 -232 l-99 -107
-5 242 c-6 277 -10 292 -89 334 -59 31 -111 30 -150 -3z"/>
<path d="M15043 2095 c-68 -29 -87 -116 -39 -179 15 -20 26 -48 26 -65 0 -26
-4 -31 -24 -31 -96 0 -148 -109 -85 -176 13 -14 39 -26 65 -30 l44 -6 0 -220
c0 -238 10 -305 55 -384 29 -49 82 -98 133 -121 46 -21 229 -24 283 -5 83 29
119 109 77 172 -39 57 -64 66 -146 50 -106 -20 -150 0 -171 77 -6 21 -11 128
-11 238 l0 200 92 -3 c51 -2 110 1 130 7 69 21 98 91 61 148 -27 41 -70 53
-188 53 l-105 0 0 86 c0 104 -23 155 -82 185 -44 22 -71 23 -115 4z"/>
<path d="M4175 1826 c-243 -57 -406 -256 -405 -495 1 -95 13 -149 52 -228 106
-217 369 -332 598 -262 81 24 165 73 194 112 52 71 4 168 -85 169 -32 1 -60
-8 -104 -33 -56 -32 -66 -34 -150 -34 -81 0 -95 3 -137 28 -94 57 -140 136
-140 241 0 122 59 213 170 262 85 39 157 34 258 -17 67 -34 89 -40 117 -35 76
14 117 95 80 158 -58 101 -291 170 -448 134z"/>
<path d="M5062 1824 c-102 -17 -138 -35 -159 -78 -19 -41 -12 -78 23 -113 25
-25 29 -25 106 -19 44 4 102 11 128 17 59 13 150 -8 186 -42 25 -24 44 -75 44
-121 0 -28 -17 -37 -35 -19 -16 14 -141 41 -190 41 -122 0 -256 -56 -317 -132
-50 -61 -68 -116 -68 -201 0 -96 41 -182 117 -243 80 -65 149 -89 263 -89 97
0 134 11 212 62 27 17 28 17 58 -14 17 -17 49 -35 72 -41 37 -10 49 -8 85 9
74 36 91 114 38 177 -24 28 -24 31 -27 303 -3 263 -4 276 -27 326 -42 95 -142
162 -271 182 -82 14 -134 12 -238 -5z m278 -533 c44 -18 45 -20 48 -67 6 -88
-44 -156 -139 -189 -85 -30 -190 -10 -229 45 -14 19 -20 44 -20 78 0 71 39
114 130 145 37 13 167 5 210 -12z"/>
<path d="M10883 1825 c-133 -29 -267 -128 -338 -249 -61 -105 -82 -260 -49
-374 80 -280 365 -442 636 -361 162 48 243 133 208 219 -29 71 -108 81 -213
26 -59 -31 -78 -36 -135 -36 -161 0 -282 121 -282 280 0 156 126 280 284 280
52 0 73 -6 140 -40 87 -45 117 -49 162 -21 64 39 69 123 11 179 -40 38 -131
80 -217 98 -79 17 -126 16 -207 -1z"/>
<path d="M11885 1828 c-139 -26 -273 -133 -338 -268 -56 -119 -69 -218 -42
-343 50 -235 248 -397 486 -397 90 0 233 28 286 55 15 8 33 15 39 15 7 0 26
13 43 29 26 24 31 36 31 76 0 38 -5 52 -29 76 -40 39 -95 39 -193 -1 -147 -58
-271 -49 -359 28 -45 40 -93 117 -83 133 3 5 143 9 319 9 217 0 322 4 339 12
32 14 66 70 66 106 0 48 -39 182 -67 235 -36 66 -124 154 -190 190 -56 30
-165 57 -223 56 -19 -1 -57 -6 -85 -11z m190 -232 c55 -25 110 -81 132 -134
26 -63 29 -62 -236 -62 -132 0 -242 3 -245 8 -7 12 39 101 69 132 23 25 83 60
125 73 38 13 108 5 155 -17z"/>
<path d="M2452 1822 c-32 -10 -79 -57 -86 -88 -9 -34 10 -91 35 -104 18 -10
19 -25 19 -292 l0 -282 -31 -32 c-41 -43 -49 -98 -19 -137 83 -105 244 -55
271 84 4 24 8 148 9 276 0 138 4 243 11 260 13 34 55 80 91 99 33 17 112 18
189 2 68 -14 106 -2 132 41 42 72 4 137 -98 167 -118 34 -242 4 -308 -75 l-25
-30 -23 36 c-42 63 -108 93 -167 75z"/>
<path d="M3345 1823 c-88 -23 -118 -127 -54 -189 l29 -28 0 -323 c0 -298 2
-327 19 -361 25 -49 47 -67 98 -82 87 -26 173 21 173 95 0 41 -22 90 -45 98
-13 6 -15 47 -15 317 0 192 -4 328 -11 354 -13 54 -60 100 -114 115 -42 11
-48 12 -80 4z"/>
<path d="M5923 1815 c-69 -30 -89 -116 -40 -174 l27 -33 0 -273 0 -274 -31
-35 c-82 -94 -17 -207 109 -193 48 5 84 27 116 71 20 26 21 45 26 284 l5 257
28 47 c31 53 66 82 128 103 54 20 100 19 167 -2 61 -20 116 -73 126 -125 3
-17 6 -137 6 -267 0 -208 3 -241 19 -276 22 -47 44 -68 90 -84 94 -31 181 15
181 97 0 39 -23 87 -45 95 -13 5 -15 35 -15 201 0 280 -23 375 -112 472 -76
82 -243 136 -369 119 -62 -9 -160 -55 -186 -89 -24 -30 -43 -34 -43 -9 0 30
-49 82 -88 93 -47 13 -60 12 -99 -5z"/>
<path d="M8886 1819 c-16 -4 -42 -20 -57 -35 -39 -37 -40 -99 -4 -142 l25 -30
0 -452 0 -452 -30 -28 c-25 -24 -30 -35 -30 -77 0 -51 16 -75 67 -102 57 -29
155 2 192 62 18 30 20 50 21 200 1 133 4 167 15 167 8 0 17 -5 20 -10 12 -19
87 -62 143 -81 72 -25 148 -24 236 2 132 39 219 116 282 246 111 230 38 535
-160 667 -87 58 -166 79 -271 74 -96 -5 -158 -28 -223 -82 -38 -33 -43 -32
-67 6 -34 54 -104 83 -159 67z m536 -225 c58 -29 95 -62 122 -108 112 -192
-11 -436 -220 -436 -77 0 -118 15 -174 66 -68 62 -85 103 -85 214 0 86 3 100
27 142 74 124 219 178 330 122z"/>
<path d="M10044 1816 c-52 -23 -74 -54 -74 -104 0 -35 6 -49 30 -73 l29 -30 3
-332 c3 -331 3 -332 27 -371 60 -96 208 -100 256 -6 20 39 6 100 -30 128 l-24
19 -3 334 c-3 313 -4 336 -23 367 -38 64 -129 96 -191 68z"/>
<path d="M16060 1816 c-225 -62 -372 -250 -372 -476 0 -145 48 -256 156 -358
118 -111 276 -154 434 -117 121 29 202 84 222 152 10 33 10 45 -4 71 -18 35
-62 62 -100 62 -14 0 -56 -16 -94 -36 -59 -31 -79 -36 -134 -36 -85 1 -139 24
-191 82 -49 54 -67 103 -67 180 0 82 19 129 75 187 40 41 62 55 109 68 77 23
132 15 220 -31 54 -28 76 -34 101 -30 40 8 82 45 91 80 16 63 -22 112 -127
163 -108 52 -222 66 -319 39z"/>
<path d="M18122 1815 c-88 -27 -175 -82 -235 -149 -65 -73 -117 -216 -117
-325 0 -271 212 -491 475 -491 121 0 298 51 347 101 33 32 37 85 11 129 -31
53 -88 63 -163 29 -184 -86 -331 -58 -423 81 -10 13 -17 32 -17 42 0 16 23 17
306 20 l306 3 29 33 c25 28 29 40 29 90 0 280 -296 516 -548 437z m203 -224
c22 -10 52 -31 67 -47 27 -29 74 -122 65 -130 -2 -2 -108 -3 -235 -2 l-232 3
24 50 c44 95 119 145 216 145 32 0 71 -8 95 -19z"/>
<path d="M14513 1800 c-40 -24 -53 -48 -53 -99 0 -32 7 -48 30 -73 l30 -31 0
-305 c0 -288 1 -308 21 -348 51 -106 210 -109 250 -6 13 33 -5 93 -36 120
l-25 22 0 311 c0 301 -1 312 -22 350 -24 43 -85 79 -134 79 -16 0 -43 -9 -61
-20z"/>
<path d="M18904 1811 c-11 -5 -33 -24 -48 -42 -23 -27 -27 -40 -23 -72 3 -21
15 -49 26 -61 20 -21 21 -33 21 -290 l0 -268 -30 -35 c-41 -46 -41 -100 -1
-145 27 -30 34 -33 89 -33 65 0 97 16 136 69 20 25 21 45 26 274 5 231 6 250
27 289 42 78 110 109 220 100 79 -6 122 -31 151 -87 21 -42 22 -56 22 -280 0
-208 3 -240 19 -276 59 -129 261 -118 261 14 0 39 -23 87 -45 95 -13 6 -15 36
-15 205 0 109 -5 224 -11 255 -16 80 -67 165 -124 209 -79 60 -153 83 -265 83
-86 0 -100 -3 -147 -29 -28 -15 -64 -41 -79 -57 l-27 -29 -18 39 c-9 22 -29
47 -43 56 -30 20 -93 28 -122 16z"/>
</g>
</svg>
