<svg xmlns="http://www.w3.org/2000/svg" width="243" height="107" viewBox="0 0 243 107">
  <defs>
    <style>
      .cls-1 {
        fill: #30d5c8;
        fill-rule: evenodd;
      }
    </style>
  </defs>
  <path id="_4" data-name="4" class="cls-1" d="M1.58,49.742A11.385,11.385,0,0,0,5.908,54.18a11.7,11.7,0,0,0,5.9,1.54,11.762,11.762,0,0,0,3.987-.574,7.515,7.515,0,0,0,2.518-1.436,8.4,8.4,0,0,0,1.469-1.7h0.944v6.735a1.343,1.343,0,0,1-1.469,1.566H4.15v5.743H21.566a5.636,5.636,0,0,0,4.2-1.593,5.79,5.79,0,0,0,1.574-4.255V29.719h-6.5v3.133H19.887a9.1,9.1,0,0,0-2.675-2.611,9.6,9.6,0,0,0-5.4-1.253,11.713,11.713,0,0,0-5.9,1.54A11.39,11.39,0,0,0,1.58,34.966a14.031,14.031,0,0,0-1.626,6.97v0.835A14.031,14.031,0,0,0,1.58,49.742Zm7.029-1.7a7.107,7.107,0,0,1-2.046-5.43V42.093a7.092,7.092,0,0,1,2.046-5.456A7.179,7.179,0,0,1,13.7,34.731a7.157,7.157,0,0,1,5.114,1.906,7.145,7.145,0,0,1,2.02,5.456v0.522a7.107,7.107,0,0,1-2.046,5.43A7.124,7.124,0,0,1,13.7,49.977,7.122,7.122,0,0,1,8.609,48.045ZM25,103.441q3.907-3.576,3.908-10.835V83.417q0-7.049-3.908-10.73T14.537,69.007q-6.5,0-10.438,3.681T0.164,83.417v9.189q0,7.258,3.934,10.835t10.438,3.576Q21.093,107.017,25,103.441ZM8.793,99q-1.915-2.062-1.915-6.187V83.1a8.408,8.408,0,0,1,2.02-6,7.377,7.377,0,0,1,5.639-2.141,7.571,7.571,0,0,1,5.587,2.062q2.072,2.063,2.072,6.083v9.712a9.03,9.03,0,0,1-1.862,6.109q-1.863,2.142-5.8,2.141Q10.707,101.065,8.793,99Zm47.317,4.438q3.907-3.576,3.908-10.835V83.417q0-7.049-3.908-10.73T45.645,69.007q-6.5,0-10.439,3.681t-3.934,10.73v9.189q0,7.258,3.934,10.835t10.439,3.576Q52.2,107.017,56.11,103.441ZM39.9,99q-1.915-2.062-1.915-6.187V83.1a8.408,8.408,0,0,1,2.02-6,7.377,7.377,0,0,1,5.639-2.141,7.571,7.571,0,0,1,5.587,2.062Q53.3,79.084,53.3,83.1v9.712a9.03,9.03,0,0,1-1.862,6.109q-1.863,2.142-5.8,2.141Q41.816,101.065,39.9,99ZM29.854,65.659V58.279H23.793V52.355h6.061V29.281H41.871L54.516,50.588v7.691H36.542v7.379H29.854ZM48.141,51.524L37.482,33.543H36.542V52.355h11.6V51.524Z"/>
</svg>
